<svg id="contact-us" xmlns="http://www.w3.org/2000/svg" xmlns:xlink="http://www.w3.org/1999/xlink" viewBox="0 0 1096 574.740000" shape-rendering="geometricPrecision" text-rendering="geometricPrecision">
	<g id="contact-us-phonegroup">
		<circle id="contact-us-circle1" r="99.960000" transform="matrix(1 0 0 1 779.73000000000002 238.18000000000001)" fill="rgb(63,61,86)" stroke="none" stroke-width="1" />
		<path id="contact-us-path1" d="M874.640000,426.590000C871.160000,423.110000,862.790000,417.860000,858.640000,415.900000C853.850000,413.600000,852.090000,413.640000,848.700000,416.090000C845.880000,418.090000,844.050000,420.020000,840.810000,419.310000C837.570000,418.600000,831.150000,413.760000,824.940000,407.570000C818.730000,401.380000,813.910000,395,813.220000,391.710000C812.530000,388.420000,814.430000,386.630000,816.450000,383.810000C818.890000,380.420000,818.960000,378.660000,816.640000,373.870000C814.640000,369.720000,809.450000,361.370000,805.940000,357.870000C802.430000,354.370000,801.670000,355.140000,799.750000,355.870000C797.774036,356.698316,795.876420,357.702346,794.080000,358.870000C790.600000,361.200000,788.650000,363.140000,787.280000,366.060000C785.910000,368.980000,784.360000,374.400000,792.330000,388.590000C798.209416,399.445360,805.656034,409.375307,814.430000,418.060000L814.430000,418.060000L814.430000,418.060000C823.144300,426.853955,833.108225,434.314263,844,440.200000C858.180000,448.200000,863.610000,446.610000,866.530000,445.250000C869.450000,443.890000,871.390000,441.960000,873.710000,438.450000C874.879866,436.654881,875.884004,434.757061,876.710000,432.780000C877.370000,430.860000,878.150000,430.080000,874.640000,426.590000Z" transform="matrix(1 0 0 1 -52 -162.63000000000000)" fill="rgb(33,118,255)" stroke="none" stroke-width="1" />
		<path id="contact-us-path2" d="M831.730000,300.860000C791.274683,300.839777,754.792550,325.196580,739.301627,362.568554C723.810704,399.940528,732.363101,442.964433,760.969334,471.570666C789.575567,500.176899,832.599472,508.729296,869.971446,493.238373C907.343420,477.747450,931.700223,441.265317,931.680000,400.810000C931.652412,345.620571,886.919429,300.887588,831.730000,300.860000ZM831.730000,487.480000C783.863481,487.480000,745.060000,448.676519,745.060000,400.810000C745.060000,352.943481,783.863481,314.140000,831.730000,314.140000C879.596519,314.140000,918.400000,352.943481,918.400000,400.810000C918.400001,448.676518,879.596521,487.479999,831.730000,487.480000Z" transform="matrix(1 0 0 1 -52 -162.63000000000000)" opacity="0.1" fill="rgb(0,0,0)" stroke="none" stroke-width="1" />
	</g>
	<g id="contact-us-emailgroup">
		<circle id="contact-us-circle2" r="99.960000" transform="matrix(1 0 0 1 550.08000000000004 390.00999999999999)" fill="rgb(63,61,86)" stroke="none" stroke-width="1" />
		<path id="contact-us-path3" d="M658.930000,522.440000L629,552.890000C628.893642,552.991858,628.833497,553.132735,628.833497,553.280000C628.833497,553.427265,628.893642,553.568142,629,553.670000L650,576C651.027167,577.034947,651.333116,578.585138,650.776170,579.932728C650.219225,581.280319,648.908125,582.162200,647.450000,582.170000C646.490296,582.167962,645.570229,581.786996,644.890000,581.110000L624,558.860000C623.778117,558.641438,623.421883,558.641438,623.200000,558.860000L618.110000,564C613.899878,568.305409,608.131767,570.731621,602.110000,570.730000C595.974578,570.701527,590.108135,568.207928,585.830000,563.810000L580.940000,558.810000C580.718117,558.591438,580.361883,558.591438,580.140000,558.810000L559.300000,581.010000C558.622804,581.688442,557.703581,582.069691,556.745000,582.069691C555.786419,582.069691,554.867196,581.688442,554.190000,581.010000C553.509090,580.334118,553.126134,579.414403,553.126134,578.455000C553.126134,577.495597,553.509090,576.575882,554.190000,575.900000L575.110000,553.620000C575.302053,553.395466,575.302053,553.064534,575.110000,552.840000L545.180000,522.390000C545.022665,522.231775,544.785326,522.184289,544.579225,522.269798C544.373124,522.355308,544.239112,522.556866,544.240000,522.780000L544.240000,583.710000C544.256462,588.612976,548.227024,592.583538,553.130000,592.600000L651,592.600000C655.902976,592.583538,659.873538,588.612976,659.890000,583.710000L659.890000,522.830000C659.900141,522.597631,659.763017,522.384005,659.547530,522.296464C659.332044,522.208922,659.084786,522.266394,658.930000,522.440000Z" transform="matrix(1 0 0 1 -52 -162.63000000000000)" fill="rgb(33,118,255)" stroke="none" stroke-width="1" />
		<path id="contact-us-path4" d="M602.080000,563.500000C606.179105,563.540204,610.119313,561.916492,613,559L656.590000,514.630000C655.042630,513.348208,653.099282,512.641536,651.090000,512.630000L553.150000,512.630000C551.139829,512.636553,549.194851,513.343818,547.650000,514.630000L591.250000,559C594.104965,561.899804,598.010704,563.522687,602.080000,563.500000Z" transform="matrix(1 0 0 1 -52 -162.63000000000000)" fill="rgb(33,118,255)" stroke="none" stroke-width="1" />
		<path id="contact-us-path5" d="M600.820000,452.690000C560.364683,452.669777,523.882550,477.026580,508.391627,514.398554C492.900704,551.770528,501.453101,594.794433,530.059334,623.400666C558.665567,652.006899,601.689472,660.559296,639.061446,645.068373C676.433420,629.577450,700.790223,593.095317,700.770000,552.640000C700.742412,497.450571,656.009429,452.717588,600.820000,452.690000ZM600.820000,639.310000C565.765257,639.310000,534.162230,618.193532,520.747361,585.807173C507.332492,553.420814,514.747609,516.142502,539.535055,491.355055C564.322502,466.567609,601.600814,459.152492,633.987173,472.567361C666.373532,485.982230,687.490000,517.585257,687.490000,552.640000C687.489999,600.506521,648.686518,639.310001,600.820000,639.310000Z" transform="matrix(1 0 0 1 -52 -162.63000000000000)" opacity="0.1" fill="rgb(0,0,0)" stroke="none" stroke-width="1" />
	</g>
	<g id="contact-us-locationgroup">
		<circle id="contact-us-circle3" r="99.960000" transform="matrix(1 0 0 1 312.85000000000002 315.36000000000001)" fill="rgb(63,61,86)" stroke="none" stroke-width="1" />
		<path id="contact-us-path6" d="M364.850000,430.160000L325,522.100000L328.720000,525.820000L364.860000,509.880000L401,525.820000L404.720000,522.100000Z" transform="matrix(1 0 0 1 -52 -162.63000000000000)" fill="rgb(33,118,255)" stroke="none" stroke-width="1" />
		<path id="contact-us-path7" d="M364.850000,378C324.399232,377.979775,287.920260,402.331165,272.426405,439.696999C256.932550,477.062832,265.475779,520.082813,294.071642,548.692981C322.667505,577.303149,365.683208,585.867893,403.056786,570.392727C440.430364,554.917561,464.799995,518.450773,464.800000,478C464.800007,422.791045,420.058948,378.027604,364.850000,378ZM364.850000,564.620000C329.790708,564.619994,298.184523,543.498113,284.772588,511.105614C271.360654,478.713116,278.784940,441.430884,303.582755,416.647375C328.380570,391.863866,365.667080,384.461096,398.051833,397.891720C430.436586,411.322345,451.540226,442.940714,451.520000,478C451.514478,525.862614,412.712614,564.660000,364.850000,564.660000Z" transform="matrix(1 0 0 1 -52 -162.63000000000000)" opacity="0.1" fill="rgb(0,0,0)" stroke="none" stroke-width="1" />
	</g>
</svg>
